<svg width="378" height="378" xmlns="http://www.w3.org/2000/svg" xmlns:xlink="http://www.w3.org/1999/xlink" overflow="hidden"><defs><clipPath id="clip0"><rect x="0" y="0" width="378" height="378"/></clipPath></defs><g clip-path="url(#clip0)"><rect x="23" y="2" width="332" height="85" fill="#525252"/><text fill="#FFFFFF" font-family="Calibri,Calibri_MSFontService,sans-serif" font-weight="400" font-size="32" transform="translate(132.613 55)">Stainless</text><rect x="23" y="146" width="332" height="86" fill="#A6A6A6"/><text fill="#FFFFFF" font-family="Calibri,Calibri_MSFontService,sans-serif" font-weight="400" font-size="32" transform="translate(161.563 200)">Inox</text><rect x="23" y="291" width="97" height="85" fill="#843C0C"/><text fill="#FFFFFF" font-family="Calibri,Calibri_MSFontService,sans-serif" font-weight="400" font-size="32" transform="translate(55.8388 344)">Z3</text><rect x="140" y="291" width="98" height="85" fill="#203864"/><text fill="#FFFFFF" font-family="Calibri,Calibri_MSFontService,sans-serif" font-weight="400" font-size="32" transform="translate(154.68 344)">CVC4</text><rect x="257" y="291" width="98" height="85" fill="#385723"/><text fill="#FFFFFF" font-family="Calibri,Calibri_MSFontService,sans-serif" font-weight="400" font-size="32" transform="translate(295.201 344)">…</text><path d="M193 87 193 125.991 185 125.991 185 87ZM201 121.991 189 145.991 177 121.991Z" fill="#FFFFFF"/><path d="M1.79376-3.57525 101.495 46.4466 97.9078 53.5971-1.79376 3.57525ZM101.508 37.5023 117.578 58.9907 90.7451 58.9538Z" fill="#FFFFFF" transform="matrix(-1 0 0 1 188.578 232)"/><path d="M3.99995-0.0199113 4.19404 38.971-3.80586 39.0108-3.99995 0.0199113ZM12.174 34.9312 0.293648 58.9907-11.8257 35.0507Z" fill="#FFFFFF" transform="matrix(-1 0 0 1 189.294 232)"/><path d="M190.797 228.427 290.214 278.43 286.62 285.577 187.203 235.573ZM290.236 269.486 306.284 290.991 279.452 290.927Z" fill="#FFFFFF"/></g></svg>